<!-- Inline mark for karasukai.com.au .l-crow-slot  paste contents inside the slot div -->
<svg viewBox="0 0 96 96" fill="none" xmlns="http://www.w3.org/2000/svg" aria-hidden="true">
  <ellipse cx="44" cy="46" rx="22" ry="20" fill="#f0f0f0"/>
  <circle cx="62" cy="30" r="11" fill="#f0f0f0"/>
  <path fill="#f0f0f0" d="M71 27 L88 22 L73 34 Z"/>
  <path fill="#f0f0f0" d="M52 36 C56 34 58 32 60 30 L64 38 C58 42 52 44 46 44 Z"/>
  <path fill="#f0f0f0" d="M24 48 L8 42 L10 52 L8 58 L24 52 Z"/>
  <path fill="#0d0d0d" fill-opacity=".5" d="M32 42 C40 36 52 36 60 42 C54 48 44 50 34 48 Z"/>
  <path fill="#f0f0f0" d="M34 64 L30 82 L34 80 L36 68 L38 80 L42 78 L36 64 Z"/>
  <path fill="#f0f0f0" d="M44 65 L43 83 L47 81 L48 70 L51 82 L55 80 L49 65 Z"/>
  <path fill="#f0f0f0" d="M54 64 L58 82 L62 80 L58 68 L61 80 L65 78 L58 64 Z"/>
  <circle cx="65" cy="28" r="2.6" fill="#c8102e"/>
</svg>
